<svg xmlns="http://www.w3.org/2000/svg" x="0px" y="0px"
width="30" height="30"
viewBox="0 0 172 172"
style=" fill:#000000;"><g fill="none" fill-rule="nonzero" stroke="none" stroke-width="1" stroke-linecap="butt" stroke-linejoin="miter" stroke-miterlimit="10" stroke-dasharray="" stroke-dashoffset="0" font-family="none" font-weight="none" font-size="none" text-anchor="none" style="mix-blend-mode: normal"><path d="M0,172v-172h172v172z" fill="none"></path><g fill="#ffffff"><path d="M86,21.5c-35.56738,0 -64.5,28.93262 -64.5,64.5c0,35.56739 28.93262,64.5 64.5,64.5c21.77295,0 41.06836,-10.81299 52.74219,-27.37891l-8.73437,-6.21484c-9.72119,13.81543 -25.7832,22.84375 -44.00781,22.84375c-29.75146,0 -53.75,-23.99854 -53.75,-53.75c0,-29.75146 23.99854,-53.75 53.75,-53.75c18.22461,0 34.26563,9.02832 44.00781,22.84375l8.73438,-6.21484c-11.67383,-16.56592 -30.96924,-27.37891 -52.74219,-27.37891zM125.47266,60.63672l-7.72656,7.72656l12.26172,12.26172h-65.50781v10.75h65.50781l-12.26172,12.26172l7.72656,7.72656l21.5,-21.5l3.69531,-3.86328l-3.69531,-3.86328z"></path></g></g></svg>